<svg width="142" height="43" viewBox="0 0 142 43" fill="none" xmlns="http://www.w3.org/2000/svg">
<path d="M44.823 38.69L44.189 40.609H43.375L45.448 34.509H46.399L48.482 40.609H47.636L46.984 38.69H44.823ZM46.823 38.074L46.223 36.318C46.088 35.918 45.997 35.557 45.907 35.204H45.889C45.798 35.567 45.698 35.938 45.581 36.304L44.981 38.07L46.823 38.074Z" fill="#85899A"/>
<path d="M51.117 34.579C51.6169 34.4978 52.1226 34.4583 52.629 34.461C53.2426 34.4142 53.8519 34.5946 54.341 34.968C54.5177 35.1291 54.657 35.3269 54.7492 35.5475C54.8415 35.768 54.8844 36.0061 54.875 36.245C54.8861 36.482 54.8501 36.7189 54.7693 36.942C54.6885 37.1651 54.5643 37.3701 54.404 37.545C54.1541 37.7766 53.8601 37.9554 53.5394 38.0705C53.2187 38.1856 52.8781 38.2348 52.538 38.215C52.3256 38.222 52.1131 38.2039 51.905 38.161V40.605H51.117V34.579ZM51.905 37.522C52.1185 37.5703 52.3372 37.5918 52.556 37.586C53.507 37.586 54.086 37.124 54.086 36.286C54.086 35.48 53.516 35.086 52.646 35.086C52.3971 35.0789 52.1482 35.1001 51.904 35.149L51.905 37.522Z" fill="#85899A"/>
<path d="M55.673 37.593C55.673 37.077 55.664 36.634 55.637 36.226H56.337L56.364 37.086H56.4C56.4749 36.8182 56.6327 36.581 56.8508 36.4085C57.0689 36.236 57.3361 36.1371 57.614 36.126C57.6902 36.1247 57.7662 36.1338 57.84 36.153V36.905C57.7507 36.8853 57.6594 36.8763 57.568 36.878C57.2958 36.889 57.0369 36.999 56.8401 37.1874C56.6432 37.3757 56.5219 37.6295 56.499 37.901C56.4767 38.0235 56.4647 38.1476 56.463 38.272V40.608H55.675L55.673 37.593Z" fill="#85899A"/>
<path d="M58.897 38.563C58.8789 38.7655 58.905 38.9695 58.9737 39.1608C59.0423 39.3522 59.1519 39.5263 59.2946 39.671C59.4374 39.8158 59.6099 39.9277 59.8003 39.999C59.9907 40.0703 60.1943 40.0993 60.397 40.084C60.8129 40.0971 61.2267 40.02 61.61 39.858L61.745 40.429C61.2836 40.6214 60.7867 40.7141 60.287 40.701C59.9945 40.7193 59.7015 40.6741 59.4281 40.5688C59.1546 40.4634 58.9071 40.3002 58.7025 40.0904C58.4979 39.8806 58.341 39.629 58.2426 39.353C58.1441 39.077 58.1064 38.7829 58.132 38.491C58.0991 38.1984 58.1273 37.9022 58.2148 37.621C58.3023 37.3399 58.4472 37.08 58.6404 36.8578C58.8336 36.6355 59.0708 36.4558 59.337 36.3301C59.6032 36.2043 59.8927 36.1351 60.187 36.127C60.4455 36.1318 60.7002 36.1905 60.9347 36.2994C61.1692 36.4082 61.3784 36.5649 61.5489 36.7593C61.7194 36.9537 61.8474 37.1815 61.9247 37.4282C62.002 37.6749 62.027 37.9351 61.998 38.192C61.9967 38.3161 61.9877 38.44 61.971 38.563H58.897ZM61.233 37.992C61.2557 37.833 61.2444 37.671 61.1998 37.5167C61.1552 37.3624 61.0784 37.2194 60.9744 37.097C60.8705 36.9746 60.7417 36.8756 60.5966 36.8067C60.4516 36.7377 60.2936 36.7003 60.133 36.697C59.8044 36.7214 59.4967 36.8678 59.2704 37.1074C59.0441 37.347 58.9156 37.6625 58.91 37.992H61.233Z" fill="#85899A"/>
<path d="M62.791 39.795C63.1066 39.992 63.4691 40.1011 63.841 40.111C64.421 40.111 64.692 39.822 64.692 39.459C64.692 39.079 64.466 38.871 63.878 38.653C63.09 38.372 62.719 37.938 62.719 37.413C62.7268 37.2268 62.773 37.0441 62.8547 36.8766C62.9364 36.7091 63.0519 36.5603 63.1939 36.4395C63.3359 36.3187 63.5013 36.2286 63.6798 36.1748C63.8583 36.1211 64.0459 36.1048 64.231 36.127C64.6078 36.1233 64.9791 36.217 65.309 36.399L65.109 36.979C64.8385 36.8122 64.5268 36.7242 64.209 36.725C63.739 36.725 63.476 36.997 63.476 37.325C63.476 37.687 63.739 37.85 64.309 38.068C65.07 38.358 65.46 38.738 65.46 39.39C65.46 40.16 64.86 40.704 63.821 40.704C63.3914 40.7115 62.9671 40.6082 62.589 40.404L62.791 39.795Z" fill="#85899A"/>
<path d="M67.282 34.995C67.282 35.1258 67.2301 35.2512 67.1376 35.3436C67.0451 35.4361 66.9197 35.488 66.789 35.488C66.6582 35.488 66.5328 35.4361 66.4404 35.3436C66.3479 35.2512 66.296 35.1258 66.296 34.995C66.2941 34.9288 66.3057 34.8629 66.3301 34.8014C66.3546 34.7399 66.3913 34.684 66.4381 34.6371C66.485 34.5903 66.5409 34.5536 66.6024 34.5291C66.6639 34.5047 66.7298 34.4931 66.796 34.495C66.8615 34.4931 66.9268 34.5048 66.9875 34.5295C67.0483 34.5541 67.1033 34.5911 67.149 34.6381C67.1947 34.6851 67.2301 34.7411 67.253 34.8026C67.2759 34.864 67.2858 34.9295 67.282 34.995ZM66.392 40.607V36.226H67.192V40.607H66.392Z" fill="#85899A"/>
<path d="M72.208 34.18V39.48C72.208 39.87 72.218 40.313 72.245 40.612H71.529L71.493 39.852H71.475C71.332 40.1213 71.116 40.3448 70.8517 40.4969C70.5875 40.649 70.2857 40.7236 69.981 40.712C69.7088 40.6967 69.4425 40.6258 69.1987 40.5038C68.9549 40.3818 68.7385 40.2112 68.563 40.0026C68.3875 39.7939 68.2565 39.5515 68.1781 39.2904C68.0997 39.0293 68.0755 38.7548 68.107 38.484C68.0716 38.1986 68.0952 37.909 68.1763 37.6332C68.2575 37.3573 68.3944 37.101 68.5786 36.8802C68.7628 36.6594 68.9904 36.4788 69.2473 36.3496C69.5042 36.2204 69.7849 36.1453 70.072 36.129C70.332 36.1132 70.5915 36.1669 70.8239 36.2846C71.0563 36.4024 71.253 36.5799 71.394 36.799H71.412V34.18H72.208ZM71.408 38.011C71.4095 37.8983 71.3974 37.7858 71.372 37.676C71.3153 37.4135 71.1702 37.1784 70.9608 37.0101C70.7514 36.8419 70.4906 36.7508 70.222 36.752C69.398 36.752 68.909 37.476 68.909 38.445C68.909 39.332 69.343 40.065 70.203 40.065C70.4769 40.0637 70.7421 39.9688 70.9545 39.796C71.167 39.6232 71.3139 39.3829 71.371 39.115C71.3973 39.0023 71.4094 38.8867 71.407 38.771L71.408 38.011Z" fill="#85899A"/>
<path d="M74.327 34.995C74.3213 35.1221 74.2668 35.242 74.1749 35.3299C74.0829 35.4177 73.9607 35.4668 73.8335 35.4668C73.7063 35.4668 73.5841 35.4177 73.4921 35.3299C73.4002 35.242 73.3457 35.1221 73.34 34.995C73.3382 34.9289 73.3499 34.863 73.3744 34.8016C73.3989 34.7401 73.4357 34.6843 73.4825 34.6375C73.5293 34.5907 73.5851 34.5539 73.6466 34.5294C73.708 34.5049 73.7739 34.4932 73.84 34.495C73.9056 34.493 73.971 34.5046 74.0318 34.5292C74.0927 34.5537 74.1478 34.5907 74.1936 34.6377C74.2394 34.6848 74.2749 34.7408 74.2979 34.8023C74.3209 34.8639 74.3308 34.9295 74.327 34.995V34.995ZM73.44 40.609V36.226H74.24V40.607L73.44 40.609Z" fill="#85899A"/>
<path d="M79.435 38.382C79.4611 38.6819 79.4237 38.9838 79.3252 39.2683C79.2267 39.5527 79.0694 39.8131 78.8636 40.0327C78.6577 40.2523 78.4079 40.426 78.1304 40.5425C77.8528 40.659 77.5539 40.7158 77.253 40.709C76.9629 40.7122 76.6753 40.6548 76.4086 40.5405C76.142 40.4262 75.9021 40.2574 75.7045 40.0451C75.5068 39.8327 75.3556 39.5814 75.2607 39.3072C75.1657 39.0331 75.129 38.7421 75.153 38.453C75.1267 38.1539 75.1637 37.8525 75.2615 37.5686C75.3593 37.2847 75.5157 37.0245 75.7207 36.805C75.9257 36.5856 76.1745 36.4117 76.4511 36.2947C76.7277 36.1777 77.0258 36.1202 77.326 36.126C77.6173 36.1201 77.9065 36.1756 78.1749 36.2889C78.4433 36.4022 78.6848 36.5707 78.8837 36.7835C79.0827 36.9964 79.2346 37.2487 79.3296 37.5241C79.4246 37.7995 79.4605 38.0918 79.435 38.382ZM75.958 38.427C75.958 39.387 76.51 40.111 77.289 40.111C78.05 40.111 78.62 39.396 78.62 38.411C78.62 37.668 78.249 36.727 77.307 36.727C76.365 36.727 75.958 37.593 75.958 38.427Z" fill="#85899A"/>
<path d="M86.472 40.409C85.9616 40.6185 85.4125 40.7174 84.861 40.699C84.4522 40.7239 84.0429 40.6604 83.6609 40.513C83.2788 40.3656 82.933 40.1377 82.6468 39.8447C82.3607 39.5517 82.141 39.2006 82.0026 38.8152C81.8643 38.4298 81.8105 38.0191 81.845 37.611C81.8207 37.1852 81.8864 36.759 82.0378 36.3602C82.1891 35.9614 82.4228 35.599 82.7236 35.2966C83.0243 34.9941 83.3854 34.7584 83.7833 34.6048C84.1812 34.4512 84.607 34.3831 85.033 34.405C85.5304 34.3843 86.026 34.4773 86.482 34.677L86.292 35.32C85.9056 35.145 85.4851 35.0583 85.061 35.066C84.7316 35.0477 84.4021 35.1014 84.0955 35.2234C83.789 35.3455 83.5127 35.5328 83.286 35.7725C83.0592 36.0122 82.8875 36.2985 82.7827 36.6113C82.6778 36.9242 82.6425 37.2561 82.679 37.584C82.644 37.9055 82.6796 38.2307 82.7835 38.5369C82.8874 38.8432 83.057 39.123 83.2804 39.3568C83.5038 39.5906 83.7756 39.7727 84.0768 39.8904C84.378 40.008 84.7013 40.0584 85.024 40.038C85.4657 40.0444 85.9039 39.9579 86.31 39.784L86.472 40.409Z" fill="#85899A"/>
<path d="M87.341 34.18H88.141V40.609H87.341V34.18Z" fill="#85899A"/>
<path d="M93.354 38.382C93.3801 38.6819 93.3427 38.9838 93.2442 39.2683C93.1457 39.5527 92.9885 39.8131 92.7826 40.0327C92.5767 40.2523 92.3269 40.426 92.0494 40.5425C91.7719 40.659 91.4729 40.7158 91.172 40.709C90.8819 40.7122 90.5943 40.6548 90.3277 40.5405C90.061 40.4262 89.8212 40.2574 89.6235 40.0451C89.4258 39.8327 89.2746 39.5814 89.1797 39.3072C89.0847 39.0331 89.048 38.7421 89.072 38.453C89.0459 38.1541 89.0829 37.8531 89.1806 37.5694C89.2784 37.2857 89.4347 37.0258 89.6394 36.8065C89.8442 36.5871 90.0927 36.4133 90.369 36.2962C90.6452 36.1792 90.943 36.1215 91.243 36.127C91.5343 36.1208 91.8237 36.1761 92.0923 36.2892C92.3608 36.4023 92.6025 36.5707 92.8017 36.7835C93.0008 36.9962 93.1529 37.2485 93.2481 37.5239C93.3433 37.7993 93.3793 38.0917 93.354 38.382V38.382ZM89.877 38.427C89.877 39.387 90.429 40.111 91.208 40.111C91.969 40.111 92.539 39.396 92.539 38.411C92.539 37.668 92.168 36.727 91.226 36.727C90.284 36.727 89.877 37.593 89.877 38.427Z" fill="#85899A"/>
<path d="M97.936 39.415C97.936 39.868 97.944 40.266 97.972 40.61H97.266L97.221 39.895H97.204C97.0561 40.1471 96.844 40.3554 96.5892 40.4986C96.3344 40.6418 96.0462 40.7147 95.754 40.71C95.066 40.71 94.242 40.33 94.242 38.79V36.227H95.042V38.653C95.042 39.486 95.296 40.053 96.02 40.053C96.2469 40.0493 96.4676 39.9786 96.6545 39.8497C96.8413 39.7209 96.9858 39.5398 97.07 39.329C97.1181 39.1984 97.1425 39.0602 97.142 38.921V36.231H97.942L97.936 39.415Z" fill="#85899A"/>
<path d="M102.953 34.18V39.48C102.953 39.87 102.963 40.313 102.99 40.612H102.275L102.239 39.852H102.223C102.08 40.1214 101.864 40.3449 101.6 40.4971C101.336 40.6492 101.034 40.7237 100.729 40.712C100.457 40.6968 100.19 40.626 99.9464 40.5041C99.7024 40.3821 99.486 40.2116 99.3104 40.0029C99.1347 39.7942 99.0037 39.5518 98.9252 39.2906C98.8467 39.0294 98.8225 38.7549 98.854 38.484C98.8186 38.1986 98.8422 37.909 98.9234 37.6332C99.0045 37.3573 99.1414 37.101 99.3256 36.8802C99.5098 36.6594 99.7375 36.4788 99.9943 36.3496C100.251 36.2204 100.532 36.1453 100.819 36.129C101.079 36.1132 101.339 36.1669 101.571 36.2846C101.803 36.4024 102 36.5799 102.141 36.799H102.159V34.18H102.953ZM102.153 38.011C102.154 37.8983 102.142 37.7858 102.116 37.676C102.059 37.4136 101.914 37.1787 101.705 37.0105C101.496 36.8423 101.235 36.751 100.967 36.752C100.143 36.752 99.654 37.476 99.654 38.445C99.654 39.332 100.089 40.065 100.949 40.065C101.223 40.0637 101.488 39.9688 101.701 39.796C101.913 39.6232 102.06 39.3829 102.117 39.115C102.144 39.0023 102.156 38.8868 102.154 38.771L102.153 38.011Z" fill="#85899A"/>
<path d="M110.306 40.409C109.795 40.6187 109.246 40.7175 108.694 40.699C108.285 40.724 107.876 40.6607 107.494 40.5134C107.112 40.366 106.766 40.1381 106.479 39.8451C106.193 39.5521 105.974 39.2009 105.835 38.8154C105.697 38.4299 105.643 38.0191 105.678 37.611C105.654 37.1853 105.719 36.7592 105.871 36.3605C106.022 35.9618 106.256 35.5994 106.556 35.297C106.857 34.9945 107.218 34.7588 107.616 34.6051C108.013 34.4514 108.439 34.3833 108.865 34.405C109.363 34.3841 109.859 34.4772 110.315 34.677L110.124 35.32C109.738 35.145 109.317 35.0582 108.893 35.066C108.564 35.0475 108.234 35.1011 107.927 35.2231C107.621 35.345 107.344 35.5324 107.118 35.7721C106.891 36.0119 106.719 36.2982 106.614 36.6111C106.51 36.924 106.474 37.2561 106.511 37.584C106.476 37.9055 106.512 38.2307 106.615 38.5369C106.719 38.8432 106.889 39.123 107.112 39.3568C107.336 39.5906 107.608 39.7727 107.909 39.8904C108.21 40.008 108.533 40.0584 108.856 40.038C109.297 40.0447 109.735 39.9585 110.141 39.785L110.306 40.409Z" fill="#85899A"/>
<path d="M115.042 38.382C115.068 38.6819 115.03 38.9839 114.932 39.2683C114.833 39.5527 114.676 39.8132 114.47 40.0327C114.264 40.2523 114.014 40.426 113.736 40.5425C113.459 40.659 113.16 40.7157 112.859 40.709C112.569 40.7122 112.281 40.6548 112.015 40.5405C111.748 40.4262 111.508 40.2574 111.31 40.0451C111.113 39.8327 110.962 39.5814 110.867 39.3072C110.772 39.0331 110.735 38.7421 110.759 38.453C110.733 38.1539 110.77 37.8525 110.867 37.5686C110.965 37.2847 111.122 37.0245 111.327 36.805C111.532 36.5856 111.781 36.4117 112.057 36.2947C112.334 36.1777 112.632 36.1202 112.932 36.126C113.223 36.12 113.513 36.1754 113.781 36.2886C114.05 36.4018 114.291 36.5703 114.49 36.7832C114.689 36.996 114.841 37.2484 114.936 37.5238C115.032 37.7993 115.067 38.0917 115.042 38.382V38.382ZM111.565 38.427C111.565 39.387 112.117 40.111 112.896 40.111C113.657 40.111 114.227 39.396 114.227 38.411C114.227 37.668 113.856 36.727 112.914 36.727C111.972 36.727 111.565 37.593 111.565 38.427Z" fill="#85899A"/>
<path d="M115.957 37.413C115.957 36.96 115.949 36.588 115.921 36.227H116.621L116.658 36.933H116.685C116.816 36.6837 117.015 36.4761 117.258 36.3337C117.501 36.1913 117.779 36.1197 118.061 36.127C118.334 36.1248 118.6 36.2084 118.823 36.366C119.045 36.5236 119.212 36.7471 119.301 37.005H119.32C119.441 36.7826 119.607 36.588 119.808 36.434C120.085 36.222 120.428 36.1134 120.777 36.127C121.357 36.127 122.217 36.507 122.217 38.027V40.607H121.438V38.128C121.438 37.286 121.13 36.779 120.487 36.779C120.275 36.7878 120.07 36.8622 119.902 36.9918C119.733 37.1214 119.609 37.3 119.546 37.503C119.504 37.6321 119.482 37.7671 119.482 37.903V40.61H118.703V37.983C118.703 37.283 118.395 36.783 117.789 36.783C117.499 36.8171 117.231 36.9569 117.037 37.1756C116.844 37.3943 116.737 37.6768 116.738 37.969V40.613H115.959L115.957 37.413Z" fill="#85899A"/>
<path d="M123.421 37.657C123.421 37.096 123.403 36.643 123.385 36.226H124.1L124.136 36.978H124.154C124.312 36.7081 124.541 36.4863 124.815 36.3364C125.089 36.1865 125.4 36.1141 125.712 36.127C125.983 36.1427 126.249 36.214 126.491 36.3364C126.734 36.4588 126.949 36.6297 127.123 36.8386C127.297 37.0474 127.426 37.2898 127.503 37.5506C127.579 37.8115 127.602 38.0853 127.568 38.355C127.607 38.6432 127.586 38.9364 127.505 39.2157C127.423 39.4949 127.284 39.754 127.096 39.9761C126.909 40.1981 126.676 40.3782 126.414 40.5046C126.152 40.6311 125.867 40.7011 125.576 40.71C125.311 40.7215 125.047 40.6642 124.811 40.5437C124.574 40.4231 124.373 40.2434 124.227 40.022H124.208V42.403H123.421V37.657ZM124.208 38.825C124.21 38.9346 124.223 39.0437 124.245 39.151C124.311 39.4177 124.465 39.6546 124.682 39.8237C124.898 39.9928 125.165 40.0845 125.44 40.084C126.283 40.084 126.772 39.396 126.772 38.391C126.772 37.513 126.31 36.76 125.472 36.76C125.191 36.7688 124.921 36.8704 124.704 37.049C124.487 37.2276 124.335 37.473 124.272 37.747C124.24 37.8529 124.221 37.9624 124.217 38.073L124.208 38.825Z" fill="#85899A"/>
<path d="M130.908 40.609L130.845 40.057H130.818C130.663 40.2644 130.46 40.4319 130.227 40.5454C129.994 40.659 129.737 40.7154 129.478 40.71C129.306 40.7226 129.133 40.6993 128.97 40.6416C128.807 40.5838 128.658 40.4929 128.532 40.3746C128.406 40.2563 128.306 40.1131 128.238 39.9541C128.17 39.7951 128.136 39.6238 128.138 39.451C128.138 38.391 129.08 37.812 130.773 37.82V37.73C130.792 37.5937 130.779 37.4549 130.735 37.3243C130.692 37.1937 130.619 37.0749 130.522 36.9768C130.426 36.8788 130.308 36.8042 130.178 36.7588C130.048 36.7134 129.91 36.6985 129.773 36.715C129.37 36.7165 128.974 36.8293 128.631 37.041L128.45 36.516C128.884 36.2548 129.382 36.12 129.889 36.127C131.229 36.127 131.555 37.041 131.555 37.919V39.558C131.549 39.9094 131.573 40.2607 131.627 40.608L130.908 40.609ZM130.79 38.372C129.92 38.354 128.933 38.508 128.933 39.359C128.925 39.4602 128.939 39.562 128.973 39.6574C129.008 39.7529 129.063 39.8397 129.135 39.9119C129.206 39.9841 129.292 40.0401 129.387 40.076C129.482 40.112 129.584 40.1269 129.685 40.12C129.917 40.1261 130.144 40.0582 130.335 39.9262C130.525 39.7942 130.668 39.605 130.744 39.386C130.772 39.3043 130.788 39.2186 130.79 39.132V38.372Z" fill="#85899A"/>
<path d="M132.755 37.413C132.755 36.96 132.746 36.588 132.719 36.227H133.425L133.47 36.951H133.488C133.632 36.6945 133.843 36.4821 134.098 36.3369C134.354 36.1917 134.644 36.1191 134.938 36.127C135.545 36.127 136.486 36.489 136.486 37.993V40.61H135.686V38.083C135.686 37.377 135.423 36.783 134.671 36.783C134.429 36.7871 134.195 36.8685 134.003 37.0153C133.811 37.1622 133.67 37.3667 133.603 37.599C133.565 37.7189 133.546 37.8442 133.549 37.97V40.605H132.749L132.755 37.413Z" fill="#85899A"/>
<path d="M137.863 36.227L138.823 38.817C138.923 39.106 139.031 39.451 139.104 39.717H139.122C139.204 39.455 139.295 39.117 139.403 38.802L140.272 36.231H141.114L139.914 39.355C139.638 40.3752 139.124 41.3153 138.414 42.098C138.138 42.3522 137.801 42.5301 137.435 42.614L137.235 41.944C137.491 41.8595 137.728 41.7271 137.935 41.554C138.224 41.3144 138.454 41.0107 138.605 40.667C138.637 40.608 138.659 40.5436 138.668 40.477C138.661 40.405 138.643 40.3345 138.614 40.268L136.992 36.23L137.863 36.227Z" fill="#85899A"/>
<path d="M52.743 27.916C54.3016 27.9887 55.856 27.7004 57.2849 27.0737C58.7138 26.4471 59.9787 25.4988 60.981 24.303L57.533 21.183C57.0048 21.8805 56.3221 22.4461 55.5386 22.8354C54.755 23.2248 53.8919 23.4273 53.017 23.427C52.2964 23.4567 51.5777 23.3343 50.9076 23.0678C50.2375 22.8014 49.6309 22.3968 49.1275 21.8804C48.6241 21.3641 48.235 20.7475 47.9856 20.0708C47.7362 19.3942 47.6321 18.6726 47.68 17.953C47.6322 17.2335 47.7365 16.512 47.9859 15.8355C48.2354 15.1589 48.6245 14.5425 49.1279 14.0262C49.6313 13.51 50.2378 13.1055 50.9078 12.8391C51.5779 12.5727 52.2965 12.4503 53.017 12.48C53.892 12.4796 54.7551 12.682 55.5387 13.0714C56.3222 13.4607 57.0049 14.0264 57.533 14.724L60.981 11.604C59.9787 10.4082 58.7138 9.45995 57.2849 8.83326C55.856 8.20656 54.3016 7.91832 52.743 7.991C46.667 7.991 42.206 12.124 42.206 17.954C42.206 23.784 46.667 27.916 52.743 27.916Z" fill="#2F3863"/>
<path d="M73.465 27.916C79.596 27.916 84.112 23.701 84.112 17.953C84.112 12.205 79.596 7.99001 73.465 7.99001C67.334 7.99001 62.818 12.204 62.818 17.954C62.818 23.704 67.334 27.916 73.465 27.916ZM73.465 12.48C74.1722 12.4725 74.8732 12.6113 75.5242 12.8876C76.1751 13.164 76.7619 13.5719 77.2477 14.0859C77.7335 14.5998 78.1077 15.2087 78.347 15.8741C78.5863 16.5396 78.6853 17.2474 78.638 17.953C78.6784 18.6572 78.5746 19.3622 78.3329 20.0249C78.0912 20.6876 77.7167 21.2939 77.2324 21.8068C76.7482 22.3196 76.1643 22.7282 75.5165 23.0074C74.8688 23.2866 74.1709 23.4307 73.4655 23.4307C72.7601 23.4307 72.0622 23.2866 71.4145 23.0074C70.7667 22.7282 70.1828 22.3196 69.6986 21.8068C69.2143 21.2939 68.8398 20.6876 68.5981 20.0249C68.3565 19.3622 68.2526 18.6572 68.293 17.953C68.2457 17.2475 68.3447 16.5398 68.5839 15.8744C68.8231 15.209 69.1973 14.6002 69.683 14.0862C70.1686 13.5723 70.7553 13.1643 71.4061 12.8879C72.057 12.6115 72.7579 12.4726 73.465 12.48V12.48Z" fill="#2F3863"/>
<path d="M106.534 17.952C106.534 12.067 102.182 8.373 95.834 8.373H87.783V27.533H95.834C102.183 27.533 106.534 23.838 106.534 17.952ZM93.201 23.207V12.699H95.613C98.87 12.699 101.06 14.642 101.06 17.954C101.06 21.266 98.87 23.209 95.613 23.209L93.201 23.207Z" fill="#2F3863"/>
<path d="M113.945 23.811H122.045L123.55 27.533H129.188L120.703 8.374H115.366L106.909 27.533H112.438L113.945 23.811ZM117.996 13.684L120.46 19.815H115.533L117.996 13.684Z" fill="#2F3863"/>
<path d="M133.066 24.957C133.066 24.647 132.835 24.443 132.466 24.443H131.875V26.017H132.024V25.476H132.466C132.499 25.4782 132.533 25.4782 132.566 25.476L132.919 26.021H133.08L132.707 25.446C132.814 25.4183 132.908 25.3545 132.974 25.2654C133.039 25.1763 133.072 25.0674 133.066 24.957V24.957ZM132.452 25.345H132.018V24.573H132.452C132.752 24.573 132.92 24.715 132.92 24.957C132.92 25.199 132.749 25.345 132.449 25.345H132.452Z" fill="#2F3863"/>
<path d="M132.394 23.878C132.126 23.8772 131.863 23.9562 131.639 24.105C131.416 24.2537 131.241 24.4656 131.139 24.7136C131.036 24.9615 131.009 25.2345 131.061 25.4978C131.114 25.7612 131.243 26.003 131.433 26.1925C131.623 26.3821 131.866 26.5109 132.129 26.5626C132.393 26.6143 132.665 26.5866 132.913 26.4829C133.161 26.3793 133.372 26.2043 133.52 25.9804C133.668 25.7564 133.747 25.4935 133.745 25.225C133.749 25.0468 133.716 24.8697 133.649 24.7044C133.583 24.5391 133.483 24.389 133.357 24.2632C133.231 24.1373 133.08 24.0383 132.915 23.9721C132.749 23.9059 132.572 23.8739 132.394 23.878V23.878ZM132.387 26.478C132.141 26.4782 131.901 26.4056 131.696 26.2694C131.492 26.1332 131.332 25.9394 131.238 25.7126C131.143 25.4858 131.118 25.236 131.165 24.9948C131.212 24.7537 131.33 24.5319 131.503 24.3575C131.676 24.1831 131.897 24.0639 132.138 24.015C132.379 23.966 132.629 23.9894 132.856 24.0823C133.084 24.1752 133.279 24.3334 133.416 24.537C133.554 24.7405 133.628 24.9803 133.63 25.226C133.632 25.3902 133.602 25.5533 133.54 25.7055C133.478 25.8578 133.387 25.9963 133.271 26.1128C133.156 26.2294 133.018 26.3217 132.866 26.3844C132.714 26.4471 132.551 26.4789 132.387 26.478V26.478Z" fill="#2F3863"/>
<path d="M5.133 25.277L18.656 33.089V34.03H21.731V31.191L31.973 25.277V17.933L35.388 17.255L34.948 15.044L31.972 15.634V9.781L21.731 3.867V0.523003H18.656V1.971L5.133 9.781V20.961L0.0890045 21.961L0.529003 24.173L5.129 23.259L5.133 25.277ZM21.733 10.259L26.44 12.977V16.733L21.733 17.667V10.259ZM21.733 19.966L26.44 19.032V22.081L21.733 24.799V19.966ZM18.658 26.574V26.706L10.773 22.144L18.657 20.579L18.658 26.574ZM10.67 12.974L18.659 8.354V18.275L10.668 19.863L10.67 12.974Z" fill="url(#paint0_linear)"/>
<defs>
<linearGradient id="paint0_linear" x1="4.81907" y1="26.2229" x2="32.0296" y2="8.64072" gradientUnits="userSpaceOnUse">
<stop stop-color="#00AFC7"/>
<stop offset="1" stop-color="#55BF34"/>
</linearGradient>
</defs>
</svg>
