<svg width="536" height="126" viewBox="0 0 536 126" fill="none" xmlns="http://www.w3.org/2000/svg">
<g clip-path="url(#clip0)">
<path fill-rule="evenodd" clip-rule="evenodd" d="M243.239 74.4925L221.791 3L217.632 16.3072C217.395 17.0658 216.716 17.6134 215.926 17.702C185.24 21.1442 175.547 24.9185 152.65 39.3899C176.303 45.7582 179.942 49.3972 189.95 61.2239L189.718 61.0484C175.411 50.1954 167.084 43.8787 144.462 43.0289C134.802 43.5002 124.104 45.6191 112.747 47.8685C80.2572 54.3038 42.3803 61.8061 8 34.8412C10.7292 40.2997 23.2949 53.0361 33.4729 58.4946C62.5849 74.1073 102.614 65.7726 136.274 58.4946C98.9748 76.6896 47.5426 75.7799 35.2924 64.4013C45.9958 77.9924 58.9345 81.5187 61.296 82.066C61.5489 82.1246 61.8096 82.1689 62.0662 82.208C97.7281 87.6441 115.963 82.26 140.456 75.0279C142.646 74.3814 144.885 73.7202 147.191 73.0506C137.184 80.3286 102.614 94.8846 61.6751 87.6066C63.6155 89.0601 65.8191 90.4528 68.0905 91.7909C75.769 96.3148 84.5109 99.0254 93.4215 98.8625C109.365 98.5711 133.165 95.7661 158.108 83.9676C156.756 84.7633 155.403 85.5799 154.034 86.4064C139.749 95.0295 123.676 104.733 87.1481 103.072C88.4577 103.603 89.7269 104.259 91.0971 104.968C96.4174 107.72 103.26 111.26 119.899 111.26C129.742 111.26 140.188 107.938 149.913 104.846C160.862 101.365 170.896 98.1749 178.123 100.343C191.769 104.437 192.679 118.538 192.679 118.538C206.633 96.642 209.964 79.4188 203.596 49.3972L211.808 60.073C212.38 60.8165 213.195 61.3354 214.111 61.5389L220.313 62.917C220.684 62.9995 221.024 63.1862 221.293 63.4552L232.739 74.9012C233.301 75.4638 234.065 75.7799 234.86 75.7799H242.281C242.951 75.7799 243.431 75.1341 243.239 74.4925ZM228.159 43.9387L222.701 37.5704L223.61 33.0217L228.159 43.9387Z" fill="url(#paint0_linear)"/>
<path d="M298.258 32.94C298.258 34.9717 297.778 36.8883 296.82 38.69C295.862 40.4917 294.328 41.9675 292.22 43.1175C290.112 44.2292 287.409 44.785 284.113 44.785H276.868V61H270.313V21.0375H284.113C287.179 21.0375 289.767 21.5742 291.875 22.6475C294.022 23.6825 295.613 25.1008 296.648 26.9025C297.721 28.7042 298.258 30.7167 298.258 32.94ZM284.113 39.4375C286.604 39.4375 288.463 38.8817 289.69 37.77C290.917 36.62 291.53 35.01 291.53 32.94C291.53 28.57 289.058 26.385 284.113 26.385H276.868V39.4375H284.113ZM335.272 44.3825C335.272 45.5708 335.195 46.6442 335.042 47.6025H310.834C311.026 50.1325 311.965 52.1642 313.652 53.6975C315.338 55.2308 317.408 55.9975 319.862 55.9975C323.388 55.9975 325.88 54.5217 327.337 51.57H334.409C333.451 54.4833 331.707 56.8792 329.177 58.7575C326.685 60.5975 323.58 61.5175 319.862 61.5175C316.833 61.5175 314.112 60.8467 311.697 59.505C309.32 58.125 307.442 56.2083 306.062 53.755C304.72 51.2633 304.049 48.3883 304.049 45.13C304.049 41.8717 304.701 39.0158 306.004 36.5625C307.346 34.0708 309.205 32.1542 311.582 30.8125C313.997 29.4708 316.757 28.8 319.862 28.8C322.852 28.8 325.516 29.4517 327.854 30.755C330.193 32.0583 332.013 33.8983 333.317 36.275C334.62 38.6133 335.272 41.3158 335.272 44.3825ZM328.429 42.3125C328.391 39.8975 327.528 37.9617 325.842 36.505C324.155 35.0483 322.066 34.32 319.574 34.32C317.313 34.32 315.377 35.0483 313.767 36.505C312.157 37.9233 311.198 39.8592 310.892 42.3125H328.429ZM356.213 28.8C358.666 28.8 360.832 29.2983 362.71 30.295C364.627 31.2533 366.122 32.4608 367.195 33.9175V29.3175H373.808V61.5175C373.808 64.4308 373.194 67.0183 371.968 69.28C370.741 71.58 368.958 73.3817 366.62 74.685C364.32 75.9883 361.56 76.64 358.34 76.64C354.047 76.64 350.482 75.6242 347.645 73.5925C344.808 71.5992 343.198 68.8775 342.815 65.4275H349.313C349.811 67.0758 350.865 68.3983 352.475 69.395C354.123 70.43 356.078 70.9475 358.34 70.9475C360.985 70.9475 363.113 70.1425 364.723 68.5325C366.371 66.9225 367.195 64.5842 367.195 61.5175V56.2275C366.083 57.7225 364.569 58.9875 362.653 60.0225C360.774 61.0192 358.628 61.5175 356.213 61.5175C353.453 61.5175 350.923 60.8275 348.623 59.4475C346.361 58.0292 344.559 56.0742 343.218 53.5825C341.914 51.0525 341.263 48.1967 341.263 45.015C341.263 41.8333 341.914 39.0158 343.218 36.5625C344.559 34.1092 346.361 32.2117 348.623 30.87C350.923 29.49 353.453 28.8 356.213 28.8ZM367.195 45.13C367.195 42.945 366.735 41.0475 365.815 39.4375C364.933 37.8275 363.764 36.6008 362.308 35.7575C360.851 34.9142 359.279 34.4925 357.593 34.4925C355.906 34.4925 354.334 34.9142 352.878 35.7575C351.421 36.5625 350.233 37.77 349.313 39.38C348.431 40.9517 347.99 42.83 347.99 45.015C347.99 47.2 348.431 49.1167 349.313 50.765C350.233 52.4133 351.421 53.6783 352.878 54.56C354.373 55.4033 355.944 55.825 357.593 55.825C359.279 55.825 360.851 55.4033 362.308 54.56C363.764 53.7167 364.933 52.49 365.815 50.88C366.735 49.2317 367.195 47.315 367.195 45.13ZM381.957 45.015C381.957 41.8333 382.609 39.0158 383.912 36.5625C385.254 34.1092 387.056 32.2117 389.317 30.87C391.617 29.49 394.147 28.8 396.907 28.8C399.399 28.8 401.565 29.2983 403.405 30.295C405.283 31.2533 406.778 32.4608 407.89 33.9175V29.3175H414.502V61H407.89V56.285C406.778 57.78 405.264 59.0258 403.347 60.0225C401.431 61.0192 399.246 61.5175 396.792 61.5175C394.071 61.5175 391.579 60.8275 389.317 59.4475C387.056 58.0292 385.254 56.0742 383.912 53.5825C382.609 51.0525 381.957 48.1967 381.957 45.015ZM407.89 45.13C407.89 42.945 407.43 41.0475 406.51 39.4375C405.628 37.8275 404.459 36.6008 403.002 35.7575C401.546 34.9142 399.974 34.4925 398.287 34.4925C396.601 34.4925 395.029 34.9142 393.572 35.7575C392.116 36.5625 390.927 37.77 390.007 39.38C389.126 40.9517 388.685 42.83 388.685 45.015C388.685 47.2 389.126 49.1167 390.007 50.765C390.927 52.4133 392.116 53.6783 393.572 54.56C395.067 55.4033 396.639 55.825 398.287 55.825C399.974 55.825 401.546 55.4033 403.002 54.56C404.459 53.7167 405.628 52.49 406.51 50.88C407.43 49.2317 407.89 47.315 407.89 45.13ZM436.337 61.5175C433.845 61.5175 431.603 61.0767 429.61 60.195C427.655 59.275 426.102 58.0483 424.952 56.515C423.802 54.9433 423.189 53.1992 423.112 51.2825H429.897C430.012 52.6242 430.645 53.755 431.795 54.675C432.983 55.5567 434.459 55.9975 436.222 55.9975C438.062 55.9975 439.48 55.6525 440.477 54.9625C441.512 54.2342 442.03 53.3142 442.03 52.2025C442.03 51.0142 441.455 50.1325 440.305 49.5575C439.193 48.9825 437.41 48.35 434.957 47.66C432.58 47.0083 430.645 46.3758 429.15 45.7625C427.655 45.1492 426.351 44.21 425.24 42.945C424.166 41.68 423.63 40.0125 423.63 37.9425C423.63 36.2558 424.128 34.7225 425.125 33.3425C426.121 31.9242 427.54 30.8125 429.38 30.0075C431.258 29.2025 433.405 28.8 435.82 28.8C439.423 28.8 442.317 29.72 444.502 31.56C446.725 33.3617 447.914 35.8342 448.067 38.9775H441.512C441.397 37.5592 440.822 36.4283 439.787 35.585C438.752 34.7417 437.353 34.32 435.59 34.32C433.865 34.32 432.542 34.6458 431.622 35.2975C430.702 35.9492 430.242 36.8117 430.242 37.885C430.242 38.7283 430.549 39.4375 431.162 40.0125C431.775 40.5875 432.523 41.0475 433.405 41.3925C434.286 41.6992 435.59 42.1017 437.315 42.6C439.615 43.2133 441.493 43.8458 442.95 44.4975C444.445 45.1108 445.729 46.0308 446.802 47.2575C447.875 48.4842 448.431 50.1133 448.47 52.145C448.47 53.9467 447.971 55.5567 446.975 56.975C445.978 58.3933 444.56 59.505 442.72 60.31C440.918 61.115 438.79 61.5175 436.337 61.5175ZM485.97 29.3175V61H479.415V57.2625C478.38 58.5658 477.019 59.6008 475.332 60.3675C473.684 61.0958 471.921 61.46 470.042 61.46C467.551 61.46 465.308 60.9425 463.315 59.9075C461.36 58.8725 459.807 57.3392 458.657 55.3075C457.546 53.2758 456.99 50.8225 456.99 47.9475V29.3175H463.487V46.97C463.487 49.8067 464.197 51.9917 465.615 53.525C467.033 55.02 468.969 55.7675 471.422 55.7675C473.876 55.7675 475.812 55.02 477.23 53.525C478.687 51.9917 479.415 49.8067 479.415 46.97V29.3175H485.97ZM507.844 61.5175C505.352 61.5175 503.109 61.0767 501.116 60.195C499.161 59.275 497.609 58.0483 496.459 56.515C495.309 54.9433 494.695 53.1992 494.619 51.2825H501.404C501.519 52.6242 502.151 53.755 503.301 54.675C504.489 55.5567 505.965 55.9975 507.729 55.9975C509.569 55.9975 510.987 55.6525 511.984 54.9625C513.019 54.2342 513.536 53.3142 513.536 52.2025C513.536 51.0142 512.961 50.1325 511.811 49.5575C510.699 48.9825 508.917 48.35 506.464 47.66C504.087 47.0083 502.151 46.3758 500.656 45.7625C499.161 45.1492 497.858 44.21 496.746 42.945C495.673 41.68 495.136 40.0125 495.136 37.9425C495.136 36.2558 495.634 34.7225 496.631 33.3425C497.628 31.9242 499.046 30.8125 500.886 30.0075C502.764 29.2025 504.911 28.8 507.326 28.8C510.929 28.8 513.824 29.72 516.009 31.56C518.232 33.3617 519.42 35.8342 519.574 38.9775H513.019C512.904 37.5592 512.329 36.4283 511.294 35.585C510.259 34.7417 508.859 34.32 507.096 34.32C505.371 34.32 504.049 34.6458 503.129 35.2975C502.209 35.9492 501.749 36.8117 501.749 37.885C501.749 38.7283 502.055 39.4375 502.669 40.0125C503.282 40.5875 504.029 41.0475 504.911 41.3925C505.793 41.6992 507.096 42.1017 508.821 42.6C511.121 43.2133 512.999 43.8458 514.456 44.4975C515.951 45.1108 517.235 46.0308 518.309 47.2575C519.382 48.4842 519.938 50.1133 519.976 52.145C519.976 53.9467 519.478 55.5567 518.481 56.975C517.484 58.3933 516.066 59.505 514.226 60.31C512.424 61.115 510.297 61.5175 507.844 61.5175Z" fill="#0B4870"/>
<path d="M282.32 89.8477C282.32 91.7266 281.677 93.1738 280.391 94.1895C279.113 95.1966 277.28 95.7002 274.894 95.7002H272.71V103H270.552V84.4395H275.363C280.001 84.4395 282.32 86.2422 282.32 89.8477ZM272.71 93.8467H274.652C276.565 93.8467 277.949 93.5378 278.804 92.9199C279.659 92.3021 280.086 91.3118 280.086 89.9492C280.086 88.722 279.684 87.8079 278.88 87.207C278.076 86.6061 276.823 86.3057 275.122 86.3057H272.71V93.8467ZM292.248 88.832C292.866 88.832 293.42 88.8828 293.911 88.9844L293.619 90.9395C293.044 90.8125 292.536 90.749 292.096 90.749C290.97 90.749 290.005 91.2061 289.201 92.1201C288.406 93.0342 288.008 94.1725 288.008 95.5352V103H285.9V89.0859H287.64L287.881 91.6631H287.982C288.499 90.7575 289.121 90.0592 289.849 89.5684C290.576 89.0775 291.376 88.832 292.248 88.832ZM308.523 96.0303C308.523 98.2985 307.952 100.072 306.81 101.35C305.667 102.619 304.089 103.254 302.074 103.254C300.83 103.254 299.726 102.962 298.761 102.378C297.796 101.794 297.051 100.956 296.526 99.8643C296.002 98.7725 295.739 97.4945 295.739 96.0303C295.739 93.762 296.306 91.9974 297.44 90.7363C298.575 89.4668 300.149 88.832 302.163 88.832C304.11 88.832 305.654 89.4795 306.797 90.7744C307.948 92.0693 308.523 93.8213 308.523 96.0303ZM297.923 96.0303C297.923 97.8076 298.278 99.1618 298.989 100.093C299.7 101.024 300.745 101.489 302.125 101.489C303.505 101.489 304.55 101.028 305.261 100.105C305.98 99.1745 306.34 97.8161 306.34 96.0303C306.34 94.2614 305.98 92.9199 305.261 92.0059C304.55 91.0833 303.496 90.6221 302.1 90.6221C300.72 90.6221 299.679 91.0749 298.977 91.9805C298.274 92.8861 297.923 94.236 297.923 96.0303ZM310.542 109.246C309.738 109.246 309.086 109.14 308.587 108.929V107.215C309.171 107.384 309.746 107.469 310.313 107.469C310.974 107.469 311.456 107.287 311.761 106.923C312.074 106.567 312.23 106.021 312.23 105.285V89.0859H314.338V105.133C314.338 107.875 313.073 109.246 310.542 109.246ZM312.053 85.3154C312.053 84.833 312.171 84.4818 312.408 84.2617C312.645 84.0332 312.941 83.9189 313.297 83.9189C313.635 83.9189 313.927 84.0332 314.173 84.2617C314.418 84.4902 314.541 84.8415 314.541 85.3154C314.541 85.7894 314.418 86.1449 314.173 86.3818C313.927 86.6104 313.635 86.7246 313.297 86.7246C312.941 86.7246 312.645 86.6104 312.408 86.3818C312.171 86.1449 312.053 85.7894 312.053 85.3154ZM324.685 103.254C322.628 103.254 321.003 102.628 319.81 101.375C318.625 100.122 318.032 98.3831 318.032 96.1572C318.032 93.9144 318.582 92.1328 319.683 90.8125C320.791 89.4922 322.277 88.832 324.139 88.832C325.882 88.832 327.262 89.4076 328.277 90.5586C329.293 91.7012 329.801 93.2119 329.801 95.0908V96.4238H320.216C320.258 98.0573 320.669 99.2972 321.447 100.144C322.234 100.99 323.339 101.413 324.761 101.413C326.259 101.413 327.74 101.1 329.204 100.474V102.353C328.459 102.674 327.753 102.903 327.084 103.038C326.424 103.182 325.624 103.254 324.685 103.254ZM324.113 90.5967C322.996 90.5967 322.103 90.9606 321.435 91.6885C320.774 92.4163 320.385 93.4235 320.267 94.71H327.541C327.541 93.3812 327.245 92.3656 326.652 91.6631C326.06 90.9521 325.214 90.5967 324.113 90.5967ZM338.967 103.254C336.952 103.254 335.391 102.636 334.282 101.4C333.182 100.156 332.632 98.4001 332.632 96.1318C332.632 93.8044 333.19 92.0059 334.308 90.7363C335.433 89.4668 337.033 88.832 339.106 88.832C339.775 88.832 340.444 88.904 341.112 89.0479C341.781 89.1917 342.306 89.361 342.687 89.5557L342.039 91.3457C341.574 91.1595 341.066 91.0072 340.516 90.8887C339.965 90.7617 339.479 90.6982 339.056 90.6982C336.229 90.6982 334.815 92.501 334.815 96.1064C334.815 97.8161 335.158 99.1279 335.844 100.042C336.538 100.956 337.562 101.413 338.916 101.413C340.076 101.413 341.265 101.163 342.483 100.664V102.53C341.552 103.013 340.38 103.254 338.967 103.254ZM350.291 101.515C350.663 101.515 351.023 101.489 351.37 101.438C351.717 101.379 351.992 101.32 352.195 101.261V102.873C351.967 102.983 351.628 103.072 351.18 103.14C350.74 103.216 350.342 103.254 349.986 103.254C347.295 103.254 345.949 101.836 345.949 99.001V90.7236H343.956V89.708L345.949 88.832L346.838 85.8613H348.057V89.0859H352.094V90.7236H348.057V98.9121C348.057 99.75 348.256 100.393 348.653 100.842C349.051 101.29 349.597 101.515 350.291 101.515ZM370.273 103L363.977 86.5469H363.875C363.993 87.8503 364.053 89.3991 364.053 91.1934V103H362.06V84.4395H365.31L371.188 99.75H371.289L377.218 84.4395H380.442V103H378.284V91.041C378.284 89.6699 378.343 88.1803 378.462 86.5723H378.36L372.013 103H370.273ZM393.785 103L393.366 101.02H393.265C392.571 101.891 391.877 102.484 391.183 102.797C390.497 103.102 389.638 103.254 388.605 103.254C387.226 103.254 386.143 102.898 385.355 102.188C384.577 101.477 384.188 100.465 384.188 99.1533C384.188 96.3434 386.435 94.8708 390.929 94.7354L393.29 94.6592V93.7959C393.29 92.7041 393.053 91.9001 392.579 91.3838C392.114 90.859 391.365 90.5967 390.332 90.5967C389.173 90.5967 387.861 90.9521 386.396 91.6631L385.749 90.0508C386.435 89.6784 387.184 89.3864 387.996 89.1748C388.817 88.9632 389.638 88.8574 390.459 88.8574C392.118 88.8574 393.345 89.2256 394.141 89.9619C394.945 90.6982 395.347 91.8789 395.347 93.5039V103H393.785ZM389.024 101.515C390.336 101.515 391.365 101.155 392.109 100.436C392.863 99.7161 393.239 98.709 393.239 97.4141V96.1572L391.132 96.2461C389.456 96.3053 388.246 96.5677 387.501 97.0332C386.765 97.4902 386.396 98.2054 386.396 99.1787C386.396 99.9404 386.625 100.52 387.082 100.918C387.548 101.316 388.195 101.515 389.024 101.515ZM409.223 103V93.999C409.223 92.8649 408.965 92.0186 408.448 91.46C407.932 90.9014 407.124 90.6221 406.023 90.6221C404.568 90.6221 403.501 91.0156 402.824 91.8027C402.147 92.5898 401.809 93.889 401.809 95.7002V103H399.701V89.0859H401.415L401.758 90.9902H401.859C402.291 90.3047 402.896 89.7757 403.675 89.4033C404.453 89.0225 405.321 88.832 406.277 88.832C407.953 88.832 409.214 89.2383 410.061 90.0508C410.907 90.8548 411.33 92.1455 411.33 93.9229V103H409.223ZM424.229 103L423.81 101.02H423.708C423.014 101.891 422.32 102.484 421.626 102.797C420.94 103.102 420.081 103.254 419.049 103.254C417.669 103.254 416.586 102.898 415.799 102.188C415.02 101.477 414.631 100.465 414.631 99.1533C414.631 96.3434 416.878 94.8708 421.372 94.7354L423.733 94.6592V93.7959C423.733 92.7041 423.496 91.9001 423.022 91.3838C422.557 90.859 421.808 90.5967 420.775 90.5967C419.616 90.5967 418.304 90.9521 416.84 91.6631L416.192 90.0508C416.878 89.6784 417.627 89.3864 418.439 89.1748C419.26 88.9632 420.081 88.8574 420.902 88.8574C422.561 88.8574 423.788 89.2256 424.584 89.9619C425.388 90.6982 425.79 91.8789 425.79 93.5039V103H424.229ZM419.468 101.515C420.78 101.515 421.808 101.155 422.553 100.436C423.306 99.7161 423.683 98.709 423.683 97.4141V96.1572L421.575 96.2461C419.899 96.3053 418.689 96.5677 417.944 97.0332C417.208 97.4902 416.84 98.2054 416.84 99.1787C416.84 99.9404 417.068 100.52 417.525 100.918C417.991 101.316 418.638 101.515 419.468 101.515ZM441.532 89.0859V90.4189L438.955 90.7236C439.192 91.0199 439.404 91.4092 439.59 91.8916C439.776 92.3656 439.869 92.903 439.869 93.5039C439.869 94.8665 439.404 95.9541 438.473 96.7666C437.542 97.5791 436.264 97.9854 434.639 97.9854C434.224 97.9854 433.835 97.9515 433.471 97.8838C432.574 98.3577 432.125 98.9544 432.125 99.6738C432.125 100.055 432.282 100.338 432.595 100.524C432.908 100.702 433.445 100.791 434.207 100.791H436.67C438.176 100.791 439.332 101.108 440.136 101.743C440.948 102.378 441.354 103.3 441.354 104.511C441.354 106.051 440.737 107.223 439.501 108.027C438.265 108.84 436.463 109.246 434.093 109.246C432.273 109.246 430.868 108.908 429.878 108.23C428.896 107.553 428.405 106.597 428.405 105.361C428.405 104.515 428.676 103.783 429.218 103.165C429.759 102.547 430.521 102.128 431.503 101.908C431.147 101.747 430.847 101.498 430.602 101.159C430.365 100.821 430.246 100.427 430.246 99.9785C430.246 99.4707 430.382 99.0264 430.652 98.6455C430.923 98.2646 431.351 97.8965 431.935 97.541C431.215 97.2448 430.627 96.7412 430.17 96.0303C429.721 95.3193 429.497 94.5068 429.497 93.5928C429.497 92.0693 429.954 90.8971 430.868 90.0762C431.782 89.2467 433.077 88.832 434.753 88.832C435.481 88.832 436.137 88.9167 436.721 89.0859H441.532ZM430.437 105.336C430.437 106.089 430.754 106.66 431.389 107.05C432.023 107.439 432.933 107.634 434.118 107.634C435.887 107.634 437.195 107.367 438.041 106.834C438.896 106.309 439.323 105.594 439.323 104.688C439.323 103.935 439.09 103.41 438.625 103.114C438.16 102.826 437.284 102.683 435.997 102.683H433.471C432.514 102.683 431.77 102.911 431.236 103.368C430.703 103.825 430.437 104.481 430.437 105.336ZM431.579 93.542C431.579 94.5153 431.854 95.2516 432.404 95.751C432.954 96.2503 433.72 96.5 434.702 96.5C436.759 96.5 437.787 95.5013 437.787 93.5039C437.787 91.4134 436.746 90.3682 434.664 90.3682C433.674 90.3682 432.912 90.6348 432.379 91.168C431.846 91.7012 431.579 92.4925 431.579 93.542ZM450.267 103.254C448.21 103.254 446.585 102.628 445.392 101.375C444.207 100.122 443.614 98.3831 443.614 96.1572C443.614 93.9144 444.164 92.1328 445.265 90.8125C446.373 89.4922 447.859 88.832 449.721 88.832C451.464 88.832 452.844 89.4076 453.859 90.5586C454.875 91.7012 455.383 93.2119 455.383 95.0908V96.4238H445.798C445.84 98.0573 446.251 99.2972 447.029 100.144C447.816 100.99 448.921 101.413 450.343 101.413C451.841 101.413 453.322 101.1 454.786 100.474V102.353C454.041 102.674 453.335 102.903 452.666 103.038C452.006 103.182 451.206 103.254 450.267 103.254ZM449.695 90.5967C448.578 90.5967 447.685 90.9606 447.017 91.6885C446.356 92.4163 445.967 93.4235 445.849 94.71H453.123C453.123 93.3812 452.827 92.3656 452.234 91.6631C451.642 90.9521 450.796 90.5967 449.695 90.5967ZM476.724 103V93.9482C476.724 92.8395 476.487 92.0101 476.013 91.46C475.539 90.9014 474.802 90.6221 473.804 90.6221C472.492 90.6221 471.523 90.9987 470.896 91.752C470.27 92.5052 469.957 93.6647 469.957 95.2305V103H467.85V93.9482C467.85 92.8395 467.613 92.0101 467.139 91.46C466.665 90.9014 465.924 90.6221 464.917 90.6221C463.597 90.6221 462.628 91.0199 462.01 91.8154C461.4 92.6025 461.096 93.8975 461.096 95.7002V103H458.988V89.0859H460.702L461.045 90.9902H461.146C461.544 90.3132 462.103 89.7842 462.822 89.4033C463.55 89.0225 464.363 88.832 465.26 88.832C467.435 88.832 468.857 89.6191 469.525 91.1934H469.627C470.042 90.4655 470.643 89.89 471.43 89.4668C472.217 89.0436 473.114 88.832 474.121 88.832C475.695 88.832 476.872 89.2383 477.65 90.0508C478.438 90.8548 478.831 92.1455 478.831 93.9229V103H476.724ZM489.063 103.254C487.007 103.254 485.382 102.628 484.188 101.375C483.004 100.122 482.411 98.3831 482.411 96.1572C482.411 93.9144 482.961 92.1328 484.062 90.8125C485.17 89.4922 486.656 88.832 488.518 88.832C490.261 88.832 491.641 89.4076 492.656 90.5586C493.672 91.7012 494.18 93.2119 494.18 95.0908V96.4238H484.595C484.637 98.0573 485.048 99.2972 485.826 100.144C486.613 100.99 487.718 101.413 489.14 101.413C490.638 101.413 492.119 101.1 493.583 100.474V102.353C492.838 102.674 492.132 102.903 491.463 103.038C490.803 103.182 490.003 103.254 489.063 103.254ZM488.492 90.5967C487.375 90.5967 486.482 90.9606 485.813 91.6885C485.153 92.4163 484.764 93.4235 484.646 94.71H491.92C491.92 93.3812 491.624 92.3656 491.031 91.6631C490.439 90.9521 489.592 90.5967 488.492 90.5967ZM507.307 103V93.999C507.307 92.8649 507.049 92.0186 506.532 91.46C506.016 90.9014 505.208 90.6221 504.107 90.6221C502.652 90.6221 501.585 91.0156 500.908 91.8027C500.231 92.5898 499.893 93.889 499.893 95.7002V103H497.785V89.0859H499.499L499.842 90.9902H499.943C500.375 90.3047 500.98 89.7757 501.759 89.4033C502.537 89.0225 503.405 88.832 504.361 88.832C506.037 88.832 507.298 89.2383 508.145 90.0508C508.991 90.8548 509.414 92.1455 509.414 93.9229V103H507.307ZM518.25 101.515C518.622 101.515 518.982 101.489 519.329 101.438C519.676 101.379 519.951 101.32 520.154 101.261V102.873C519.926 102.983 519.587 103.072 519.139 103.14C518.699 103.216 518.301 103.254 517.945 103.254C515.254 103.254 513.908 101.836 513.908 99.001V90.7236H511.915V89.708L513.908 88.832L514.797 85.8613H516.016V89.0859H520.053V90.7236H516.016V98.9121C516.016 99.75 516.215 100.393 516.612 100.842C517.01 101.29 517.556 101.515 518.25 101.515Z" fill="#0B4870"/>
</g>
<defs>
<linearGradient id="paint0_linear" x1="230.244" y1="79.4188" x2="8.92918" y2="37.4736" gradientUnits="userSpaceOnUse">
<stop stop-color="#0B4870"/>
<stop offset="1" stop-color="#FFBE55"/>
</linearGradient>
<clipPath id="clip0">
<rect width="536" height="126" fill="white"/>
</clipPath>
</defs>
</svg>
