<svg width="460" height="452" viewBox="0 0 460 452" fill="none" xmlns="http://www.w3.org/2000/svg">
<path fill-rule="evenodd" clip-rule="evenodd" d="M426.173 164.658L390.276 45L383.107 67.9402C382.87 68.6988 382.186 69.2471 381.396 69.3349C329.716 75.0817 313.642 81.2884 275.378 105.472C314.685 116.055 320.732 122.102 337.362 141.756L336.978 141.464C313.203 123.429 299.365 112.932 261.772 111.52C245.718 112.303 227.94 115.824 209.068 119.562C155.076 130.256 92.1328 142.723 35 97.9134C39.5354 106.984 60.4169 128.15 77.3307 137.22C125.709 163.165 192.228 149.315 248.165 137.22C186.181 167.457 100.711 165.945 80.3543 147.036C98.5893 170.191 120.729 175.766 123.83 176.451C124.083 176.507 124.332 176.548 124.588 176.588C184.021 185.687 214.352 176.731 255.114 164.695C258.753 163.621 262.474 162.522 266.307 161.409C249.677 173.504 192.228 197.693 124.197 185.598C129.628 189.667 136.301 193.449 142.662 196.994C150.447 201.334 159.058 204.175 167.969 204.315C193.951 204.725 238.007 201.519 284.449 179.551C282.201 180.874 279.953 182.231 277.678 183.604C253.94 197.934 227.229 214.058 166.528 211.299C168.704 212.181 170.813 213.272 173.09 214.45C181.931 219.023 193.302 224.906 220.953 224.906C237.309 224.906 254.67 219.386 270.83 214.247C289.025 208.462 305.699 203.161 317.709 206.764C340.386 213.567 341.898 237 341.898 237C365.086 200.613 370.622 171.992 360.039 122.102L374.272 140.605C374.844 141.349 375.659 141.867 376.575 142.071L388.195 144.653C388.567 144.736 388.907 144.922 389.176 145.191L409.05 165.066C409.613 165.629 410.376 165.945 411.172 165.945H425.215C425.885 165.945 426.365 165.299 426.173 164.658ZM400.858 113.032L391.787 102.449L393.299 94.8898L400.858 113.032Z" fill="url(#paint0_linear)"/>
<path d="M134.258 286.94C134.258 288.972 133.778 290.888 132.82 292.69C131.862 294.492 130.328 295.967 128.22 297.117C126.112 298.229 123.409 298.785 120.113 298.785H112.868V315H106.313V275.037H120.113C123.179 275.037 125.767 275.574 127.875 276.647C130.022 277.682 131.613 279.101 132.648 280.902C133.721 282.704 134.258 284.717 134.258 286.94ZM120.113 293.437C122.604 293.437 124.463 292.882 125.69 291.77C126.917 290.62 127.53 289.01 127.53 286.94C127.53 282.57 125.058 280.385 120.113 280.385H112.868V293.437H120.113ZM171.272 298.382C171.272 299.571 171.195 300.644 171.042 301.602H146.834C147.026 304.132 147.965 306.164 149.652 307.697C151.338 309.231 153.408 309.997 155.862 309.997C159.388 309.997 161.88 308.522 163.337 305.57H170.409C169.451 308.483 167.707 310.879 165.177 312.757C162.685 314.598 159.58 315.518 155.862 315.518C152.833 315.518 150.112 314.847 147.697 313.505C145.32 312.125 143.442 310.208 142.062 307.755C140.72 305.263 140.049 302.388 140.049 299.13C140.049 295.872 140.701 293.016 142.004 290.562C143.346 288.071 145.205 286.154 147.582 284.812C149.997 283.471 152.757 282.8 155.862 282.8C158.852 282.8 161.516 283.452 163.854 284.755C166.193 286.058 168.013 287.898 169.317 290.275C170.62 292.613 171.272 295.316 171.272 298.382ZM164.429 296.312C164.391 293.897 163.528 291.962 161.842 290.505C160.155 289.048 158.066 288.32 155.574 288.32C153.313 288.32 151.377 289.048 149.767 290.505C148.157 291.923 147.198 293.859 146.892 296.312H164.429ZM192.213 282.8C194.666 282.8 196.832 283.298 198.71 284.295C200.627 285.253 202.122 286.461 203.195 287.917V283.318H209.808V315.518C209.808 318.431 209.194 321.018 207.968 323.28C206.741 325.58 204.958 327.382 202.62 328.685C200.32 329.988 197.56 330.64 194.34 330.64C190.047 330.64 186.482 329.624 183.645 327.593C180.808 325.599 179.198 322.878 178.815 319.428H185.313C185.811 321.076 186.865 322.398 188.475 323.395C190.123 324.43 192.078 324.948 194.34 324.948C196.985 324.948 199.113 324.143 200.723 322.533C202.371 320.923 203.195 318.584 203.195 315.518V310.227C202.083 311.722 200.569 312.987 198.653 314.022C196.774 315.019 194.628 315.518 192.213 315.518C189.453 315.518 186.923 314.828 184.623 313.447C182.361 312.029 180.559 310.074 179.218 307.582C177.914 305.052 177.263 302.197 177.263 299.015C177.263 295.833 177.914 293.016 179.218 290.562C180.559 288.109 182.361 286.212 184.623 284.87C186.923 283.49 189.453 282.8 192.213 282.8ZM203.195 299.13C203.195 296.945 202.735 295.047 201.815 293.437C200.933 291.827 199.764 290.601 198.308 289.757C196.851 288.914 195.279 288.492 193.593 288.492C191.906 288.492 190.334 288.914 188.878 289.757C187.421 290.562 186.233 291.77 185.313 293.38C184.431 294.952 183.99 296.83 183.99 299.015C183.99 301.2 184.431 303.117 185.313 304.765C186.233 306.413 187.421 307.678 188.878 308.56C190.373 309.403 191.944 309.825 193.593 309.825C195.279 309.825 196.851 309.403 198.308 308.56C199.764 307.717 200.933 306.49 201.815 304.88C202.735 303.232 203.195 301.315 203.195 299.13ZM217.957 299.015C217.957 295.833 218.609 293.016 219.912 290.562C221.254 288.109 223.056 286.212 225.317 284.87C227.617 283.49 230.147 282.8 232.907 282.8C235.399 282.8 237.565 283.298 239.405 284.295C241.283 285.253 242.778 286.461 243.89 287.917V283.318H250.502V315H243.89V310.285C242.778 311.78 241.264 313.026 239.347 314.022C237.431 315.019 235.246 315.518 232.792 315.518C230.071 315.518 227.579 314.828 225.317 313.447C223.056 312.029 221.254 310.074 219.912 307.582C218.609 305.052 217.957 302.197 217.957 299.015ZM243.89 299.13C243.89 296.945 243.43 295.047 242.51 293.437C241.628 291.827 240.459 290.601 239.002 289.757C237.546 288.914 235.974 288.492 234.287 288.492C232.601 288.492 231.029 288.914 229.572 289.757C228.116 290.562 226.927 291.77 226.007 293.38C225.126 294.952 224.685 296.83 224.685 299.015C224.685 301.2 225.126 303.117 226.007 304.765C226.927 306.413 228.116 307.678 229.572 308.56C231.067 309.403 232.639 309.825 234.287 309.825C235.974 309.825 237.546 309.403 239.002 308.56C240.459 307.717 241.628 306.49 242.51 304.88C243.43 303.232 243.89 301.315 243.89 299.13ZM272.337 315.518C269.845 315.518 267.603 315.077 265.61 314.195C263.655 313.275 262.102 312.048 260.952 310.515C259.802 308.943 259.189 307.199 259.112 305.282H265.897C266.012 306.624 266.645 307.755 267.795 308.675C268.983 309.557 270.459 309.997 272.222 309.997C274.062 309.997 275.48 309.652 276.477 308.962C277.512 308.234 278.03 307.314 278.03 306.202C278.03 305.014 277.455 304.132 276.305 303.557C275.193 302.982 273.41 302.35 270.957 301.66C268.58 301.008 266.645 300.376 265.15 299.762C263.655 299.149 262.351 298.21 261.24 296.945C260.166 295.68 259.63 294.012 259.63 291.942C259.63 290.256 260.128 288.722 261.125 287.342C262.121 285.924 263.54 284.812 265.38 284.007C267.258 283.202 269.405 282.8 271.82 282.8C275.423 282.8 278.317 283.72 280.502 285.56C282.725 287.362 283.914 289.834 284.067 292.977H277.512C277.397 291.559 276.822 290.428 275.787 289.585C274.752 288.742 273.353 288.32 271.59 288.32C269.865 288.32 268.542 288.646 267.622 289.297C266.702 289.949 266.242 290.812 266.242 291.885C266.242 292.728 266.549 293.437 267.162 294.012C267.775 294.587 268.523 295.047 269.405 295.392C270.286 295.699 271.59 296.102 273.315 296.6C275.615 297.213 277.493 297.846 278.95 298.497C280.445 299.111 281.729 300.031 282.802 301.257C283.875 302.484 284.431 304.113 284.47 306.145C284.47 307.947 283.971 309.557 282.975 310.975C281.978 312.393 280.56 313.505 278.72 314.31C276.918 315.115 274.79 315.518 272.337 315.518ZM321.97 283.318V315H315.415V311.262C314.38 312.566 313.019 313.601 311.332 314.367C309.684 315.096 307.921 315.46 306.042 315.46C303.551 315.46 301.308 314.942 299.315 313.907C297.36 312.872 295.807 311.339 294.657 309.307C293.546 307.276 292.99 304.822 292.99 301.947V283.318H299.487V300.97C299.487 303.807 300.197 305.992 301.615 307.525C303.033 309.02 304.969 309.767 307.422 309.767C309.876 309.767 311.812 309.02 313.23 307.525C314.687 305.992 315.415 303.807 315.415 300.97V283.318H321.97ZM343.844 315.518C341.352 315.518 339.109 315.077 337.116 314.195C335.161 313.275 333.609 312.048 332.459 310.515C331.309 308.943 330.695 307.199 330.619 305.282H337.404C337.519 306.624 338.151 307.755 339.301 308.675C340.489 309.557 341.965 309.997 343.729 309.997C345.569 309.997 346.987 309.652 347.984 308.962C349.019 308.234 349.536 307.314 349.536 306.202C349.536 305.014 348.961 304.132 347.811 303.557C346.699 302.982 344.917 302.35 342.464 301.66C340.087 301.008 338.151 300.376 336.656 299.762C335.161 299.149 333.858 298.21 332.746 296.945C331.673 295.68 331.136 294.012 331.136 291.942C331.136 290.256 331.634 288.722 332.631 287.342C333.628 285.924 335.046 284.812 336.886 284.007C338.764 283.202 340.911 282.8 343.326 282.8C346.929 282.8 349.824 283.72 352.009 285.56C354.232 287.362 355.42 289.834 355.574 292.977H349.019C348.904 291.559 348.329 290.428 347.294 289.585C346.259 288.742 344.859 288.32 343.096 288.32C341.371 288.32 340.049 288.646 339.129 289.297C338.209 289.949 337.749 290.812 337.749 291.885C337.749 292.728 338.055 293.437 338.669 294.012C339.282 294.587 340.029 295.047 340.911 295.392C341.793 295.699 343.096 296.102 344.821 296.6C347.121 297.213 348.999 297.846 350.456 298.497C351.951 299.111 353.235 300.031 354.309 301.257C355.382 302.484 355.938 304.113 355.976 306.145C355.976 307.947 355.478 309.557 354.481 310.975C353.484 312.393 352.066 313.505 350.226 314.31C348.424 315.115 346.297 315.518 343.844 315.518Z" fill="#0B4870"/>
<path d="M116.964 355.848C116.964 357.727 116.321 359.174 115.034 360.189C113.756 361.197 111.924 361.7 109.537 361.7H107.354V369H105.195V350.439H110.007C114.645 350.439 116.964 352.242 116.964 355.848ZM107.354 359.847H109.296C111.209 359.847 112.592 359.538 113.447 358.92C114.302 358.302 114.729 357.312 114.729 355.949C114.729 354.722 114.327 353.808 113.523 353.207C112.719 352.606 111.467 352.306 109.766 352.306H107.354V359.847ZM126.892 354.832C127.509 354.832 128.064 354.883 128.555 354.984L128.263 356.939C127.687 356.812 127.179 356.749 126.739 356.749C125.614 356.749 124.649 357.206 123.845 358.12C123.049 359.034 122.651 360.173 122.651 361.535V369H120.544V355.086H122.283L122.524 357.663H122.626C123.142 356.757 123.764 356.059 124.492 355.568C125.22 355.077 126.02 354.832 126.892 354.832ZM143.167 362.03C143.167 364.299 142.596 366.072 141.453 367.35C140.311 368.619 138.732 369.254 136.718 369.254C135.474 369.254 134.369 368.962 133.404 368.378C132.439 367.794 131.695 366.956 131.17 365.864C130.645 364.772 130.383 363.494 130.383 362.03C130.383 359.762 130.95 357.997 132.084 356.736C133.218 355.467 134.792 354.832 136.807 354.832C138.753 354.832 140.298 355.479 141.44 356.774C142.591 358.069 143.167 359.821 143.167 362.03ZM132.566 362.03C132.566 363.808 132.922 365.162 133.633 366.093C134.344 367.024 135.389 367.489 136.769 367.489C138.148 367.489 139.193 367.028 139.904 366.105C140.624 365.174 140.983 363.816 140.983 362.03C140.983 360.261 140.624 358.92 139.904 358.006C139.193 357.083 138.14 356.622 136.743 356.622C135.364 356.622 134.323 357.075 133.62 357.98C132.918 358.886 132.566 360.236 132.566 362.03ZM145.186 375.246C144.382 375.246 143.73 375.14 143.23 374.929V373.215C143.814 373.384 144.39 373.469 144.957 373.469C145.617 373.469 146.1 373.287 146.404 372.923C146.717 372.567 146.874 372.021 146.874 371.285V355.086H148.981V371.133C148.981 373.875 147.716 375.246 145.186 375.246ZM146.696 351.315C146.696 350.833 146.815 350.482 147.052 350.262C147.289 350.033 147.585 349.919 147.94 349.919C148.279 349.919 148.571 350.033 148.816 350.262C149.062 350.49 149.185 350.841 149.185 351.315C149.185 351.789 149.062 352.145 148.816 352.382C148.571 352.61 148.279 352.725 147.94 352.725C147.585 352.725 147.289 352.61 147.052 352.382C146.815 352.145 146.696 351.789 146.696 351.315ZM159.328 369.254C157.271 369.254 155.646 368.628 154.453 367.375C153.268 366.122 152.676 364.383 152.676 362.157C152.676 359.914 153.226 358.133 154.326 356.812C155.435 355.492 156.92 354.832 158.782 354.832C160.526 354.832 161.905 355.408 162.921 356.559C163.937 357.701 164.444 359.212 164.444 361.091V362.424H154.859C154.902 364.057 155.312 365.297 156.091 366.144C156.878 366.99 157.982 367.413 159.404 367.413C160.902 367.413 162.383 367.1 163.848 366.474V368.353C163.103 368.674 162.396 368.903 161.728 369.038C161.067 369.182 160.268 369.254 159.328 369.254ZM158.757 356.597C157.64 356.597 156.747 356.961 156.078 357.688C155.418 358.416 155.029 359.424 154.91 360.71H162.185C162.185 359.381 161.888 358.366 161.296 357.663C160.703 356.952 159.857 356.597 158.757 356.597ZM173.61 369.254C171.596 369.254 170.035 368.636 168.926 367.4C167.826 366.156 167.275 364.4 167.275 362.132C167.275 359.804 167.834 358.006 168.951 356.736C170.077 355.467 171.676 354.832 173.75 354.832C174.419 354.832 175.087 354.904 175.756 355.048C176.424 355.192 176.949 355.361 177.33 355.556L176.683 357.346C176.217 357.16 175.709 357.007 175.159 356.889C174.609 356.762 174.122 356.698 173.699 356.698C170.872 356.698 169.459 358.501 169.459 362.106C169.459 363.816 169.802 365.128 170.487 366.042C171.181 366.956 172.205 367.413 173.56 367.413C174.719 367.413 175.908 367.163 177.127 366.664V368.53C176.196 369.013 175.024 369.254 173.61 369.254ZM184.935 367.515C185.307 367.515 185.667 367.489 186.014 367.438C186.361 367.379 186.636 367.32 186.839 367.261V368.873C186.61 368.983 186.272 369.072 185.823 369.14C185.383 369.216 184.985 369.254 184.63 369.254C181.938 369.254 180.593 367.836 180.593 365.001V356.724H178.6V355.708L180.593 354.832L181.481 351.861H182.7V355.086H186.737V356.724H182.7V364.912C182.7 365.75 182.899 366.393 183.297 366.842C183.695 367.29 184.241 367.515 184.935 367.515ZM204.917 369L198.62 352.547H198.519C198.637 353.85 198.696 355.399 198.696 357.193V369H196.703V350.439H199.953L205.831 365.75H205.933L211.861 350.439H215.086V369H212.928V357.041C212.928 355.67 212.987 354.18 213.105 352.572H213.004L206.656 369H204.917ZM228.429 369L228.01 367.02H227.908C227.214 367.891 226.52 368.484 225.826 368.797C225.141 369.102 224.282 369.254 223.249 369.254C221.869 369.254 220.786 368.898 219.999 368.188C219.22 367.477 218.831 366.465 218.831 365.153C218.831 362.343 221.078 360.871 225.572 360.735L227.934 360.659V359.796C227.934 358.704 227.697 357.9 227.223 357.384C226.757 356.859 226.008 356.597 224.976 356.597C223.816 356.597 222.504 356.952 221.04 357.663L220.393 356.051C221.078 355.678 221.827 355.386 222.64 355.175C223.461 354.963 224.282 354.857 225.103 354.857C226.761 354.857 227.989 355.226 228.784 355.962C229.588 356.698 229.99 357.879 229.99 359.504V369H228.429ZM223.668 367.515C224.98 367.515 226.008 367.155 226.753 366.436C227.506 365.716 227.883 364.709 227.883 363.414V362.157L225.775 362.246C224.1 362.305 222.889 362.568 222.145 363.033C221.408 363.49 221.04 364.205 221.04 365.179C221.04 365.94 221.269 366.52 221.726 366.918C222.191 367.316 222.839 367.515 223.668 367.515ZM243.866 369V359.999C243.866 358.865 243.608 358.019 243.092 357.46C242.576 356.901 241.767 356.622 240.667 356.622C239.211 356.622 238.145 357.016 237.468 357.803C236.791 358.59 236.452 359.889 236.452 361.7V369H234.345V355.086H236.059L236.401 356.99H236.503C236.935 356.305 237.54 355.776 238.318 355.403C239.097 355.022 239.965 354.832 240.921 354.832C242.597 354.832 243.858 355.238 244.704 356.051C245.55 356.855 245.974 358.146 245.974 359.923V369H243.866ZM258.872 369L258.453 367.02H258.352C257.658 367.891 256.964 368.484 256.27 368.797C255.584 369.102 254.725 369.254 253.692 369.254C252.313 369.254 251.229 368.898 250.442 368.188C249.664 367.477 249.274 366.465 249.274 365.153C249.274 362.343 251.521 360.871 256.016 360.735L258.377 360.659V359.796C258.377 358.704 258.14 357.9 257.666 357.384C257.201 356.859 256.451 356.597 255.419 356.597C254.259 356.597 252.948 356.952 251.483 357.663L250.836 356.051C251.521 355.678 252.271 355.386 253.083 355.175C253.904 354.963 254.725 354.857 255.546 354.857C257.205 354.857 258.432 355.226 259.228 355.962C260.032 356.698 260.434 357.879 260.434 359.504V369H258.872ZM254.111 367.515C255.423 367.515 256.451 367.155 257.196 366.436C257.95 365.716 258.326 364.709 258.326 363.414V362.157L256.219 362.246C254.543 362.305 253.333 362.568 252.588 363.033C251.852 363.49 251.483 364.205 251.483 365.179C251.483 365.94 251.712 366.52 252.169 366.918C252.634 367.316 253.282 367.515 254.111 367.515ZM276.176 355.086V356.419L273.599 356.724C273.836 357.02 274.047 357.409 274.233 357.892C274.42 358.366 274.513 358.903 274.513 359.504C274.513 360.867 274.047 361.954 273.116 362.767C272.185 363.579 270.907 363.985 269.282 363.985C268.868 363.985 268.478 363.951 268.114 363.884C267.217 364.358 266.769 364.954 266.769 365.674C266.769 366.055 266.925 366.338 267.238 366.524C267.551 366.702 268.089 366.791 268.851 366.791H271.313C272.82 366.791 273.975 367.108 274.779 367.743C275.592 368.378 275.998 369.3 275.998 370.511C275.998 372.051 275.38 373.223 274.145 374.027C272.909 374.84 271.106 375.246 268.736 375.246C266.917 375.246 265.512 374.908 264.521 374.23C263.54 373.553 263.049 372.597 263.049 371.361C263.049 370.515 263.32 369.783 263.861 369.165C264.403 368.547 265.165 368.128 266.146 367.908C265.791 367.747 265.491 367.498 265.245 367.159C265.008 366.821 264.89 366.427 264.89 365.979C264.89 365.471 265.025 365.026 265.296 364.646C265.567 364.265 265.994 363.896 266.578 363.541C265.859 363.245 265.271 362.741 264.813 362.03C264.365 361.319 264.141 360.507 264.141 359.593C264.141 358.069 264.598 356.897 265.512 356.076C266.426 355.247 267.721 354.832 269.396 354.832C270.124 354.832 270.78 354.917 271.364 355.086H276.176ZM265.08 371.336C265.08 372.089 265.397 372.66 266.032 373.05C266.667 373.439 267.577 373.634 268.762 373.634C270.531 373.634 271.838 373.367 272.685 372.834C273.539 372.309 273.967 371.594 273.967 370.688C273.967 369.935 273.734 369.41 273.269 369.114C272.803 368.826 271.927 368.683 270.641 368.683H268.114C267.158 368.683 266.413 368.911 265.88 369.368C265.347 369.825 265.08 370.481 265.08 371.336ZM266.223 359.542C266.223 360.515 266.498 361.252 267.048 361.751C267.598 362.25 268.364 362.5 269.346 362.5C271.402 362.5 272.431 361.501 272.431 359.504C272.431 357.413 271.39 356.368 269.308 356.368C268.317 356.368 267.556 356.635 267.022 357.168C266.489 357.701 266.223 358.493 266.223 359.542ZM284.91 369.254C282.854 369.254 281.229 368.628 280.035 367.375C278.85 366.122 278.258 364.383 278.258 362.157C278.258 359.914 278.808 358.133 279.908 356.812C281.017 355.492 282.502 354.832 284.364 354.832C286.108 354.832 287.487 355.408 288.503 356.559C289.519 357.701 290.026 359.212 290.026 361.091V362.424H280.441C280.484 364.057 280.894 365.297 281.673 366.144C282.46 366.99 283.564 367.413 284.986 367.413C286.484 367.413 287.965 367.1 289.43 366.474V368.353C288.685 368.674 287.978 368.903 287.31 369.038C286.649 369.182 285.85 369.254 284.91 369.254ZM284.339 356.597C283.222 356.597 282.329 356.961 281.66 357.688C281 358.416 280.611 359.424 280.492 360.71H287.767C287.767 359.381 287.47 358.366 286.878 357.663C286.285 356.952 285.439 356.597 284.339 356.597ZM311.367 369V359.948C311.367 358.84 311.13 358.01 310.656 357.46C310.182 356.901 309.446 356.622 308.447 356.622C307.135 356.622 306.166 356.999 305.54 357.752C304.914 358.505 304.601 359.665 304.601 361.23V369H302.493V359.948C302.493 358.84 302.256 358.01 301.782 357.46C301.308 356.901 300.568 356.622 299.561 356.622C298.24 356.622 297.271 357.02 296.653 357.815C296.044 358.603 295.739 359.897 295.739 361.7V369H293.632V355.086H295.346L295.688 356.99H295.79C296.188 356.313 296.746 355.784 297.466 355.403C298.194 355.022 299.006 354.832 299.903 354.832C302.078 354.832 303.5 355.619 304.169 357.193H304.271C304.685 356.465 305.286 355.89 306.073 355.467C306.86 355.044 307.757 354.832 308.765 354.832C310.339 354.832 311.515 355.238 312.294 356.051C313.081 356.855 313.475 358.146 313.475 359.923V369H311.367ZM323.707 369.254C321.65 369.254 320.025 368.628 318.832 367.375C317.647 366.122 317.055 364.383 317.055 362.157C317.055 359.914 317.605 358.133 318.705 356.812C319.814 355.492 321.299 354.832 323.161 354.832C324.905 354.832 326.284 355.408 327.3 356.559C328.315 357.701 328.823 359.212 328.823 361.091V362.424H319.238C319.281 364.057 319.691 365.297 320.47 366.144C321.257 366.99 322.361 367.413 323.783 367.413C325.281 367.413 326.762 367.1 328.227 366.474V368.353C327.482 368.674 326.775 368.903 326.106 369.038C325.446 369.182 324.646 369.254 323.707 369.254ZM323.136 356.597C322.019 356.597 321.126 356.961 320.457 357.688C319.797 358.416 319.408 359.424 319.289 360.71H326.563C326.563 359.381 326.267 358.366 325.675 357.663C325.082 356.952 324.236 356.597 323.136 356.597ZM341.95 369V359.999C341.95 358.865 341.692 358.019 341.176 357.46C340.66 356.901 339.851 356.622 338.751 356.622C337.295 356.622 336.229 357.016 335.552 357.803C334.875 358.59 334.536 359.889 334.536 361.7V369H332.429V355.086H334.143L334.485 356.99H334.587C335.019 356.305 335.624 355.776 336.402 355.403C337.181 355.022 338.049 354.832 339.005 354.832C340.681 354.832 341.942 355.238 342.788 356.051C343.634 356.855 344.058 358.146 344.058 359.923V369H341.95ZM352.894 367.515C353.266 367.515 353.626 367.489 353.973 367.438C354.32 367.379 354.595 367.32 354.798 367.261V368.873C354.569 368.983 354.231 369.072 353.782 369.14C353.342 369.216 352.944 369.254 352.589 369.254C349.897 369.254 348.552 367.836 348.552 365.001V356.724H346.559V355.708L348.552 354.832L349.44 351.861H350.659V355.086H354.696V356.724H350.659V364.912C350.659 365.75 350.858 366.393 351.256 366.842C351.654 367.29 352.2 367.515 352.894 367.515ZM198.138 399.062C198.138 400.695 197.545 401.969 196.36 402.883C195.175 403.797 193.567 404.254 191.536 404.254C189.336 404.254 187.643 403.97 186.458 403.403V401.321C187.22 401.643 188.049 401.897 188.946 402.083C189.843 402.269 190.732 402.362 191.612 402.362C193.051 402.362 194.134 402.091 194.862 401.55C195.59 401 195.954 400.238 195.954 399.265C195.954 398.621 195.823 398.097 195.561 397.69C195.307 397.276 194.875 396.895 194.266 396.548C193.665 396.201 192.746 395.807 191.511 395.367C189.784 394.749 188.549 394.017 187.804 393.171C187.067 392.325 186.699 391.22 186.699 389.857C186.699 388.427 187.237 387.289 188.312 386.442C189.386 385.596 190.808 385.173 192.577 385.173C194.422 385.173 196.119 385.511 197.668 386.188L196.995 388.067C195.463 387.424 193.974 387.103 192.526 387.103C191.384 387.103 190.491 387.348 189.848 387.839C189.204 388.33 188.883 389.011 188.883 389.883C188.883 390.526 189.001 391.055 189.238 391.47C189.475 391.876 189.873 392.253 190.432 392.6C190.999 392.938 191.862 393.315 193.021 393.729C194.968 394.424 196.305 395.168 197.033 395.964C197.77 396.759 198.138 397.792 198.138 399.062ZM199.407 390.086H201.667L204.714 398.021C205.382 399.832 205.797 401.139 205.958 401.943H206.06C206.17 401.512 206.398 400.775 206.745 399.734C207.101 398.685 208.252 395.469 210.198 390.086H212.458L206.479 405.93C205.886 407.495 205.192 408.604 204.396 409.256C203.609 409.916 202.64 410.246 201.489 410.246C200.846 410.246 200.211 410.174 199.585 410.03V408.342C200.05 408.443 200.571 408.494 201.146 408.494C202.594 408.494 203.626 407.682 204.244 406.057L205.019 404.076L199.407 390.086ZM223.693 400.204C223.693 401.499 223.211 402.498 222.246 403.2C221.281 403.903 219.927 404.254 218.184 404.254C216.339 404.254 214.9 403.962 213.867 403.378V401.423C214.536 401.761 215.251 402.028 216.013 402.223C216.783 402.417 217.523 402.515 218.234 402.515C219.335 402.515 220.181 402.341 220.773 401.994C221.366 401.639 221.662 401.101 221.662 400.382C221.662 399.84 221.425 399.379 220.951 398.998C220.486 398.609 219.572 398.152 218.209 397.627C216.914 397.145 215.992 396.726 215.441 396.37C214.9 396.006 214.493 395.596 214.223 395.139C213.96 394.682 213.829 394.136 213.829 393.501C213.829 392.367 214.29 391.474 215.213 390.822C216.135 390.162 217.401 389.832 219.009 389.832C220.507 389.832 221.971 390.137 223.401 390.746L222.652 392.46C221.256 391.884 219.991 391.597 218.856 391.597C217.858 391.597 217.104 391.753 216.597 392.066C216.089 392.38 215.835 392.811 215.835 393.361C215.835 393.734 215.928 394.051 216.114 394.313C216.309 394.576 216.618 394.826 217.041 395.062C217.464 395.299 218.277 395.642 219.479 396.091C221.129 396.692 222.242 397.297 222.817 397.906C223.401 398.516 223.693 399.282 223.693 400.204ZM231.628 402.515C232 402.515 232.36 402.489 232.707 402.438C233.054 402.379 233.329 402.32 233.532 402.261V403.873C233.304 403.983 232.965 404.072 232.517 404.14C232.076 404.216 231.679 404.254 231.323 404.254C228.632 404.254 227.286 402.836 227.286 400.001V391.724H225.293V390.708L227.286 389.832L228.175 386.861H229.394V390.086H233.431V391.724H229.394V399.912C229.394 400.75 229.592 401.393 229.99 401.842C230.388 402.29 230.934 402.515 231.628 402.515ZM242.203 404.254C240.146 404.254 238.521 403.628 237.328 402.375C236.143 401.122 235.551 399.383 235.551 397.157C235.551 394.914 236.101 393.133 237.201 391.812C238.31 390.492 239.795 389.832 241.657 389.832C243.401 389.832 244.78 390.408 245.796 391.559C246.812 392.701 247.319 394.212 247.319 396.091V397.424H237.734C237.777 399.057 238.187 400.297 238.966 401.144C239.753 401.99 240.857 402.413 242.279 402.413C243.777 402.413 245.258 402.1 246.723 401.474V403.353C245.978 403.674 245.271 403.903 244.603 404.038C243.942 404.182 243.143 404.254 242.203 404.254ZM241.632 391.597C240.515 391.597 239.622 391.961 238.953 392.688C238.293 393.416 237.904 394.424 237.785 395.71H245.06C245.06 394.381 244.763 393.366 244.171 392.663C243.578 391.952 242.732 391.597 241.632 391.597ZM268.66 404V394.948C268.66 393.84 268.423 393.01 267.949 392.46C267.475 391.901 266.739 391.622 265.74 391.622C264.428 391.622 263.459 391.999 262.833 392.752C262.207 393.505 261.894 394.665 261.894 396.23V404H259.786V394.948C259.786 393.84 259.549 393.01 259.075 392.46C258.601 391.901 257.861 391.622 256.854 391.622C255.533 391.622 254.564 392.02 253.946 392.815C253.337 393.603 253.032 394.897 253.032 396.7V404H250.925V390.086H252.639L252.981 391.99H253.083C253.481 391.313 254.039 390.784 254.759 390.403C255.487 390.022 256.299 389.832 257.196 389.832C259.371 389.832 260.793 390.619 261.462 392.193H261.563C261.978 391.465 262.579 390.89 263.366 390.467C264.153 390.044 265.05 389.832 266.058 389.832C267.632 389.832 268.808 390.238 269.587 391.051C270.374 391.855 270.768 393.146 270.768 394.923V404H268.66Z" fill="#0B4870"/>
<defs>
<linearGradient id="paint0_linear" x1="404.538" y1="171.992" x2="36.5598" y2="102.21" gradientUnits="userSpaceOnUse">
<stop stop-color="#0B4870"/>
<stop offset="1" stop-color="#FFBE55"/>
</linearGradient>
</defs>
</svg>
